<svg xmlns="http://www.w3.org/2000/svg" width="324" height="302" viewBox="0 0 324 302">
<g>
<path d="M 156.69,17.38 L 161.74,17.62 L 163.97,18.00 L 166.12,18.43 L 167.06,18.71 L 168.82,19.31 L 169.50,19.68 L 173.33,22.13 L 175.58,23.99 L 176.56,25.02 L 178.42,27.13 L 179.21,28.26 L 180.69,30.58 L 181.28,31.80 L 182.38,34.28 L 182.78,35.57 L 183.50,38.16 L 183.72,39.49 L 184.07,42.15 L 184.11,43.49 L 184.09,46.17 L 183.95,47.50 L 183.57,50.16 L 183.24,51.46 L 182.51,54.05 L 182.01,55.30 L 180.93,57.77 L 180.25,58.94 L 178.82,61.24 L 177.98,62.32 L 176.21,64.41 L 175.19,65.36 L 173.09,67.19 L 171.91,68.00 L 169.47,69.52 L 168.13,70.16 L 165.36,71.34 L 163.86,71.78 L 158.00,73.50 L 158.00,96.78 L 158.02,102.88 L 158.04,106.41 L 158.06,107.93 L 158.11,110.79 L 158.14,111.99 L 158.22,114.25 L 158.27,115.16 L 158.37,116.86 L 158.44,117.51 L 158.57,118.70 L 158.65,119.13 L 158.82,119.86 L 158.92,120.08 L 159.13,120.42 L 159.25,120.45 L 160.02,120.65 L 160.76,120.82 L 161.20,120.91 L 163.15,121.28 L 164.15,121.45 L 165.86,121.88 L 167.16,122.34 L 167.83,122.63 L 170.53,123.91 L 171.56,124.61 L 175.33,127.16 L 191.80,110.69 L 208.27,94.22 L 205.13,87.95 L 203.53,84.48 L 202.81,82.50 L 202.58,81.53 L 202.21,79.57 L 202.13,78.45 L 202.02,76.08 L 202.02,74.59 L 202.44,68.79 L 203.16,65.42 L 203.76,63.91 L 205.14,60.99 L 206.11,59.61 L 208.24,56.89 L 209.63,55.53 L 214.01,51.88 L 217.03,50.05 L 218.66,49.42 L 222.01,48.33 L 223.88,48.03 L 227.77,47.58 L 230.00,47.57 L 236.36,48.06 L 240.09,48.92 L 241.77,49.65 L 245.01,51.31 L 246.52,52.46 L 249.48,55.01 L 250.91,56.64 L 254.10,61.04 L 255.74,64.18 L 256.32,65.82 L 257.33,69.14 L 257.59,70.84 L 257.96,74.26 L 257.91,75.98 L 257.65,79.40 L 257.28,81.09 L 256.39,84.43 L 255.71,86.03 L 254.19,89.20 L 253.20,90.68 L 251.06,93.58 L 249.75,94.90 L 246.32,98.09 L 244.23,99.70 L 243.15,100.31 L 240.96,101.41 L 239.71,101.84 L 237.06,102.65 L 235.45,103.01 L 230.64,103.49 L 227.19,103.30 L 225.45,102.98 L 221.98,102.19 L 220.34,101.59 L 217.18,100.24 L 215.82,99.39 L 212.92,97.70 L 212.15,97.31 L 211.86,97.19 L 211.37,97.00 L 211.26,97.00 L 210.77,97.33 L 210.13,97.87 L 209.67,98.29 L 208.66,99.21 L 208.03,99.80 L 206.69,101.06 L 205.92,101.80 L 204.30,103.35 L 203.41,104.22 L 201.56,106.01 L 200.56,106.99 L 196.41,111.08 L 194.17,113.33 L 177.87,129.66 L 180.13,133.49 L 181.10,135.35 L 181.76,136.79 L 182.07,137.55 L 183.24,140.66 L 183.56,141.92 L 184.72,146.50 L 232.44,146.50 L 233.18,142.18 L 233.97,139.14 L 234.74,137.13 L 235.25,136.14 L 236.32,134.19 L 236.97,133.25 L 238.31,131.40 L 239.07,130.52 L 240.65,128.81 L 241.52,128.03 L 243.29,126.50 L 244.24,125.82 L 246.18,124.51 L 247.20,123.96 L 249.26,122.92 L 250.33,122.51 L 252.78,121.81 L 254.68,121.47 L 255.71,121.36 L 260.07,121.06 L 262.33,121.14 L 266.82,121.45 L 268.80,121.82 L 270.72,122.23 L 271.55,122.48 L 273.12,123.03 L 273.73,123.35 L 277.18,125.64 L 279.52,127.63 L 280.64,128.79 L 282.82,131.18 L 283.77,132.45 L 285.56,135.01 L 286.23,136.28 L 287.28,138.82 L 287.83,140.75 L 288.03,141.81 L 288.63,146.22 L 288.62,148.52 L 288.42,153.13 L 288.01,155.24 L 287.55,157.30 L 287.25,158.24 L 286.59,160.03 L 286.19,160.79 L 283.00,165.65 L 280.50,168.50 L 279.09,169.70 L 276.18,171.98 L 274.61,172.89 L 271.39,174.57 L 269.70,175.17 L 266.28,176.20 L 264.52,176.47 L 260.99,176.84 L 259.21,176.76 L 255.67,176.41 L 253.93,175.97 L 250.47,174.88 L 248.81,174.05 L 245.81,172.28 L 243.86,170.86 L 242.93,170.06 L 241.10,168.41 L 240.25,167.52 L 238.61,165.71 L 237.87,164.76 L 236.46,162.86 L 235.87,161.90 L 234.76,159.98 L 234.33,159.04 L 233.57,157.17 L 233.35,156.29 L 233.00,154.56 L 233.00,151.00 L 184.26,151.00 L 183.61,155.05 L 183.15,156.95 L 182.68,158.38 L 182.39,159.12 L 181.09,162.07 L 180.38,163.20 L 177.79,167.29 L 194.85,184.34 L 197.79,187.28 L 199.57,189.06 L 200.38,189.86 L 201.93,191.40 L 202.63,192.10 L 203.99,193.42 L 204.59,194.01 L 206.82,196.16 L 207.69,196.96 L 209.29,198.40 L 209.90,198.89 L 211.00,199.72 L 211.41,199.94 L 212.15,200.28 L 212.44,200.30 L 212.97,200.26 L 213.20,200.14 L 213.64,199.82 L 213.89,199.60 L 216.38,197.89 L 218.39,196.94 L 219.54,196.56 L 221.91,195.87 L 223.18,195.63 L 225.79,195.21 L 227.14,195.11 L 229.86,194.97 L 231.23,195.01 L 233.95,195.16 L 235.27,195.34 L 237.87,195.79 L 239.09,196.13 L 241.45,196.89 L 242.50,197.39 L 246.90,199.95 L 249.45,201.94 L 250.54,203.05 L 252.60,205.36 L 253.45,206.60 L 255.04,209.16 L 255.65,210.51 L 256.76,213.25 L 257.15,214.67 L 257.80,217.54 L 257.96,218.99 L 258.17,221.93 L 258.12,223.39 L 257.89,226.32 L 257.62,227.77 L 256.98,230.64 L 256.50,232.03 L 255.45,234.77 L 254.77,236.08 L 253.32,238.64 L 252.45,239.83 L 250.61,242.14 L 249.54,243.18 L 247.33,245.17 L 246.08,246.03 L 243.51,247.66 L 242.08,248.31 L 239.15,249.50 L 237.56,249.91 L 234.29,250.60 L 232.53,250.73 L 226.36,250.49 L 222.40,249.63 L 220.53,248.89 L 216.89,247.21 L 215.23,246.10 L 212.01,243.71 L 210.60,242.29 L 207.92,239.31 L 206.82,237.63 L 204.78,234.15 L 204.04,232.27 L 202.76,228.42 L 202.45,226.39 L 202.03,222.27 L 202.19,220.15 L 202.64,216.47 L 203.15,214.24 L 203.52,213.16 L 204.37,211.01 L 204.95,209.88 L 206.23,207.56 L 207.06,206.25 L 207.46,205.47 L 207.57,204.94 L 207.51,204.63 L 207.32,203.97 L 207.07,203.54 L 206.46,202.60 L 205.97,201.99 L 204.85,200.66 L 204.06,199.80 L 202.31,197.93 L 201.17,196.76 L 199.98,195.54 L 199.32,194.86 L 197.93,193.46 L 197.16,192.68 L 195.56,191.07 L 194.68,190.19 L 192.85,188.36 L 191.85,187.36 L 175.22,170.73 L 168.95,173.87 L 163.83,176.08 L 162.33,176.59 L 161.73,176.75 L 160.65,177.00 L 157.96,177.00 L 158.23,200.71 L 158.50,224.41 L 162.27,225.19 L 166.95,226.59 L 169.85,227.88 L 171.18,228.69 L 173.76,230.43 L 174.91,231.44 L 177.12,233.57 L 178.08,234.77 L 179.90,237.25 L 180.64,238.61 L 182.03,241.40 L 182.54,242.89 L 183.45,245.93 L 183.72,247.54 L 184.12,250.80 L 184.12,252.50 L 183.86,256.56 L 183.43,259.16 L 183.09,260.40 L 182.32,262.84 L 181.81,264.00 L 180.72,266.28 L 180.05,267.34 L 178.65,269.43 L 177.83,270.39 L 176.13,272.27 L 175.16,273.12 L 173.17,274.77 L 172.06,275.51 L 169.79,276.91 L 168.55,277.52 L 165.28,278.96 L 163.63,279.45 L 160.34,280.26 L 158.71,280.45 L 155.45,280.66 L 153.85,280.54 L 150.66,280.16 L 149.12,279.76 L 146.06,278.79 L 144.59,278.10 L 141.70,276.57 L 140.33,275.59 L 137.65,273.50 L 136.41,272.26 L 133.99,269.62 L 132.90,268.11 L 131.03,265.13 L 130.01,263.07 L 129.60,262.02 L 128.87,259.90 L 128.61,258.83 L 128.16,256.67 L 128.03,255.58 L 127.81,251.21 L 128.08,249.06 L 128.88,244.80 L 129.64,242.76 L 131.39,238.78 L 132.59,236.97 L 135.22,233.47 L 136.85,231.96 L 138.52,230.50 L 139.42,229.84 L 141.28,228.58 L 142.28,228.03 L 144.33,226.99 L 145.42,226.56 L 147.63,225.77 L 148.80,225.47 L 153.50,224.28 L 153.77,200.76 L 154.04,177.25 L 149.77,176.15 L 147.80,175.52 L 146.33,174.96 L 145.58,174.64 L 142.60,173.25 L 141.50,172.57 L 137.50,170.10 L 120.86,186.67 L 104.23,203.25 L 106.61,206.76 L 108.75,210.62 L 109.80,213.38 L 110.14,214.85 L 110.70,217.87 L 110.80,219.48 L 110.88,222.77 L 110.74,224.53 L 109.94,229.57 L 109.00,232.67 L 108.32,234.12 L 106.80,236.97 L 105.81,238.34 L 103.67,241.05 L 102.35,242.39 L 97.94,246.00 L 94.76,247.86 L 93.07,248.52 L 89.65,249.66 L 87.89,249.96 L 84.33,250.39 L 82.54,250.33 L 78.96,250.04 L 77.20,249.62 L 73.70,248.62 L 72.01,247.85 L 68.68,246.13 L 67.12,245.01 L 64.08,242.59 L 62.70,241.11 L 58.88,236.32 L 57.05,233.12 L 56.45,231.42 L 55.47,227.96 L 55.27,226.04 L 55.06,222.04 L 55.21,219.76 L 55.46,216.89 L 55.68,215.17 L 55.83,214.39 L 56.52,211.46 L 57.07,210.18 L 58.33,207.70 L 59.23,206.47 L 61.23,204.00 L 62.58,202.61 L 66.29,199.47 L 69.05,197.74 L 70.53,197.05 L 73.56,195.79 L 75.14,195.35 L 78.35,194.60 L 79.97,194.41 L 83.24,194.16 L 84.87,194.23 L 88.10,194.51 L 89.67,194.84 L 92.77,195.65 L 94.23,196.25 L 97.09,197.60 L 98.39,198.49 L 101.75,200.77 L 118.12,184.38 L 134.50,167.98 L 131.84,163.24 L 129.75,158.79 L 129.18,157.27 L 128.96,156.58 L 128.57,155.27 L 128.48,154.75 L 127.78,151.00 L 103.89,151.00 L 98.66,151.02 L 95.44,151.05 L 93.98,151.07 L 91.15,151.12 L 89.90,151.15 L 87.49,151.22 L 86.45,151.26 L 84.50,151.35 L 83.70,151.40 L 82.22,151.50 L 81.67,151.56 L 80.71,151.69 L 80.43,151.75 L 80.00,151.89 L 80.00,151.96 L 79.79,153.55 L 79.46,154.81 L 79.20,155.52 L 77.99,158.50 L 77.15,160.08 L 75.35,163.26 L 74.35,164.71 L 72.30,167.45 L 71.30,168.44 L 66.75,172.21 L 63.55,174.17 L 61.90,174.88 L 58.56,176.12 L 56.86,176.47 L 53.43,176.98 L 51.70,176.97 L 48.25,176.75 L 46.54,176.38 L 43.12,175.44 L 41.45,174.70 L 38.13,173.04 L 36.53,171.93 L 33.37,169.55 L 31.88,168.09 L 28.96,165.05 L 27.50,163.29 L 26.95,162.44 L 25.95,160.73 L 25.56,159.79 L 24.82,157.81 L 24.47,156.61 L 23.70,153.22 L 23.39,150.97 L 23.34,149.86 L 23.38,145.48 L 23.77,143.38 L 24.77,139.27 L 25.61,137.36 L 27.49,133.66 L 28.72,132.00 L 31.38,128.83 L 32.97,127.49 L 36.30,124.99 L 38.19,124.03 L 42.11,122.32 L 44.25,121.80 L 46.42,121.35 L 47.55,121.21 L 49.83,121.01 L 51.01,121.01 L 56.60,121.29 L 58.35,121.48 L 59.08,121.60 L 60.45,121.84 L 60.92,121.98 L 63.99,123.14 L 65.97,124.16 L 66.92,124.79 L 68.80,126.12 L 69.69,126.88 L 71.42,128.48 L 72.22,129.37 L 73.78,131.19 L 74.48,132.18 L 75.83,134.20 L 76.42,135.27 L 77.52,137.45 L 77.98,138.59 L 78.81,140.89 L 79.11,142.07 L 80.39,147.04 L 103.83,146.77 L 127.28,146.50 L 128.43,141.95 L 129.94,137.62 L 130.60,136.12 L 130.94,135.43 L 131.62,134.12 L 131.94,133.60 L 134.29,129.80 L 117.76,113.26 L 101.22,96.73 L 94.95,99.87 L 90.51,101.70 L 87.56,102.54 L 86.10,102.77 L 83.19,103.10 L 81.75,103.07 L 78.89,102.89 L 77.49,102.61 L 74.70,101.92 L 73.33,101.39 L 70.63,100.20 L 69.32,99.42 L 66.72,97.74 L 65.47,96.71 L 62.99,94.53 L 61.81,93.25 L 58.06,88.33 L 56.19,84.82 L 55.56,82.97 L 54.53,79.22 L 54.33,77.26 L 54.16,73.30 L 54.40,71.26 L 55.36,66.38 L 56.36,63.44 L 57.07,62.07 L 58.64,59.41 L 59.66,58.14 L 61.86,55.62 L 63.22,54.36 L 67.89,50.72 L 71.04,48.97 L 72.71,48.40 L 76.14,47.46 L 78.05,47.27 L 81.99,47.06 L 84.24,47.21 L 88.41,47.71 L 91.01,48.25 L 92.23,48.63 L 94.60,49.46 L 95.70,49.99 L 97.84,51.11 L 98.82,51.79 L 100.74,53.21 L 101.62,54.03 L 103.32,55.75 L 104.09,56.72 L 105.58,58.74 L 106.25,59.87 L 107.53,62.20 L 108.10,63.48 L 109.30,66.92 L 109.86,69.38 L 110.02,70.66 L 110.28,73.23 L 110.29,74.54 L 110.25,77.14 L 110.12,78.42 L 109.79,80.96 L 109.51,82.17 L 108.90,84.56 L 108.50,85.66 L 107.61,87.79 L 107.07,88.73 L 105.93,90.52 L 105.27,91.26 L 104.81,91.90 L 104.68,92.37 L 104.73,92.66 L 104.92,93.30 L 105.17,93.72 L 105.78,94.65 L 106.28,95.26 L 107.42,96.61 L 108.22,97.48 L 109.99,99.36 L 111.14,100.55 L 112.34,101.78 L 113.01,102.46 L 114.40,103.88 L 115.18,104.66 L 116.79,106.28 L 117.67,107.17 L 119.50,109.00 L 120.50,110.00 L 137.40,126.92 L 140.90,124.75 L 142.62,123.82 L 143.98,123.19 L 144.71,122.89 L 147.70,121.75 L 148.95,121.43 L 153.50,120.28 L 153.77,96.64 L 153.81,92.67 L 153.84,90.26 L 153.85,89.17 L 153.86,87.06 L 153.87,86.11 L 153.88,84.28 L 153.88,83.47 L 153.87,80.45 L 153.84,79.29 L 153.78,77.17 L 153.73,76.39 L 153.61,75.02 L 153.52,74.56 L 153.33,73.76 L 153.21,73.53 L 152.93,73.17 L 152.76,73.09 L 152.40,73.00 L 152.18,73.00 L 150.97,72.75 L 149.77,72.37 L 149.04,72.09 L 145.81,70.75 L 144.10,69.89 L 138.94,66.61 L 135.81,63.92 L 134.47,62.41 L 131.97,59.28 L 131.02,57.65 L 129.36,54.34 L 128.92,52.70 L 128.21,47.92 L 128.13,44.27 L 128.27,42.41 L 128.66,38.72 L 129.02,37.06 L 129.41,35.45 L 129.65,34.73 L 130.13,33.34 L 130.42,32.76 L 132.79,29.00 L 134.91,26.40 L 136.13,25.18 L 138.66,22.80 L 139.96,21.80 L 142.55,19.96 L 143.76,19.36 L 146.25,18.45 L 148.25,17.99 L 149.38,17.82 L 154.16,17.35 Z" fill="rgb(0,128,0)"/>
<path d="M 0.00,151.00 L 0.00,0.00 L 162.00,0.00 L 324.00,0.00 L 324.00,151.00 L 324.00,302.00 L 162.00,302.00 L 0.00,302.00 L 0.00,151.00 M 168.55,277.52 L 169.79,276.91 L 172.06,275.51 L 173.17,274.77 L 175.16,273.12 L 176.13,272.27 L 177.83,270.39 L 178.65,269.43 L 180.05,267.34 L 180.72,266.28 L 181.81,264.00 L 182.32,262.84 L 183.09,260.40 L 183.43,259.16 L 183.86,256.56 L 184.12,252.50 L 184.12,250.80 L 183.72,247.54 L 183.45,245.93 L 182.54,242.89 L 182.03,241.40 L 180.64,238.61 L 179.90,237.25 L 178.08,234.77 L 177.12,233.57 L 174.91,231.44 L 173.76,230.43 L 171.18,228.69 L 169.85,227.88 L 166.95,226.59 L 162.27,225.19 L 158.50,224.41 L 158.23,200.71 L 157.96,177.00 L 160.32,177.00 L 160.65,177.00 L 161.73,176.75 L 162.33,176.59 L 163.83,176.08 L 168.95,173.87 L 175.22,170.73 L 191.85,187.36 L 192.85,188.36 L 194.68,190.19 L 195.56,191.07 L 197.16,192.68 L 197.93,193.46 L 199.32,194.86 L 199.98,195.54 L 201.17,196.76 L 202.31,197.93 L 204.06,199.80 L 204.85,200.66 L 205.97,201.99 L 206.46,202.60 L 207.07,203.54 L 207.32,203.97 L 207.51,204.63 L 207.57,204.94 L 207.46,205.47 L 207.06,206.25 L 206.23,207.56 L 204.95,209.88 L 204.37,211.01 L 203.52,213.16 L 203.15,214.24 L 202.64,216.47 L 202.19,220.15 L 202.03,222.27 L 202.45,226.39 L 202.76,228.42 L 204.04,232.27 L 204.78,234.15 L 206.82,237.63 L 207.92,239.31 L 210.60,242.29 L 212.01,243.71 L 215.23,246.10 L 216.89,247.21 L 220.53,248.89 L 222.40,249.63 L 226.36,250.49 L 232.53,250.73 L 234.29,250.60 L 237.56,249.91 L 239.15,249.50 L 242.08,248.31 L 243.51,247.66 L 246.08,246.03 L 247.33,245.17 L 249.54,243.18 L 250.61,242.14 L 252.45,239.83 L 253.32,238.64 L 254.77,236.08 L 255.45,234.77 L 256.50,232.03 L 256.98,230.64 L 257.62,227.77 L 257.89,226.32 L 258.12,223.39 L 258.17,221.93 L 257.96,218.99 L 257.80,217.54 L 257.15,214.67 L 256.76,213.25 L 255.65,210.51 L 255.04,209.16 L 253.45,206.60 L 252.60,205.36 L 250.54,203.05 L 249.45,201.94 L 246.90,199.95 L 242.50,197.39 L 241.45,196.89 L 239.09,196.13 L 237.87,195.79 L 235.27,195.34 L 233.95,195.16 L 231.23,195.01 L 229.86,194.97 L 227.14,195.11 L 225.79,195.21 L 223.18,195.63 L 221.91,195.87 L 219.54,196.56 L 218.39,196.94 L 216.38,197.89 L 213.89,199.60 L 213.64,199.82 L 213.20,200.14 L 212.97,200.26 L 212.44,200.30 L 212.15,200.28 L 211.41,199.94 L 211.00,199.72 L 209.90,198.89 L 209.29,198.40 L 207.69,196.96 L 206.82,196.16 L 204.59,194.01 L 203.99,193.42 L 202.63,192.10 L 201.93,191.40 L 200.38,189.86 L 199.57,189.06 L 197.79,187.28 L 194.85,184.34 L 177.79,167.29 L 180.38,163.20 L 181.09,162.07 L 182.39,159.12 L 182.68,158.38 L 183.15,156.95 L 183.61,155.05 L 184.26,151.00 L 208.63,151.00 L 233.00,151.00 L 233.00,153.76 L 233.00,154.56 L 233.35,156.29 L 233.57,157.17 L 234.33,159.04 L 234.76,159.98 L 235.87,161.90 L 236.46,162.86 L 237.87,164.76 L 238.61,165.71 L 240.25,167.52 L 241.10,168.41 L 242.93,170.06 L 243.86,170.86 L 245.81,172.28 L 248.81,174.05 L 250.47,174.88 L 253.93,175.97 L 255.67,176.41 L 259.21,176.76 L 260.99,176.84 L 264.52,176.47 L 266.28,176.20 L 269.70,175.17 L 271.39,174.57 L 274.61,172.89 L 276.18,171.98 L 279.09,169.70 L 280.50,168.50 L 283.00,165.65 L 286.19,160.79 L 286.59,160.03 L 287.25,158.24 L 287.55,157.30 L 288.01,155.24 L 288.42,153.13 L 288.62,148.52 L 288.63,146.22 L 288.03,141.81 L 287.83,140.75 L 287.28,138.82 L 286.23,136.28 L 285.56,135.01 L 283.77,132.45 L 282.82,131.18 L 280.64,128.79 L 279.52,127.63 L 277.18,125.64 L 273.73,123.35 L 273.12,123.03 L 271.55,122.48 L 270.72,122.23 L 268.80,121.82 L 266.82,121.45 L 262.33,121.14 L 260.07,121.06 L 255.71,121.36 L 254.68,121.47 L 252.78,121.81 L 250.33,122.51 L 249.26,122.92 L 247.20,123.96 L 246.18,124.51 L 244.24,125.82 L 243.29,126.50 L 241.52,128.03 L 240.65,128.81 L 239.07,130.52 L 238.31,131.40 L 236.97,133.25 L 236.32,134.19 L 235.25,136.14 L 234.74,137.13 L 233.97,139.14 L 233.18,142.18 L 232.44,146.50 L 208.58,146.50 L 184.72,146.50 L 183.56,141.92 L 183.24,140.66 L 182.07,137.55 L 181.76,136.79 L 181.10,135.35 L 180.13,133.49 L 177.87,129.66 L 194.17,113.33 L 196.41,111.08 L 200.56,106.99 L 201.56,106.01 L 203.41,104.22 L 204.30,103.35 L 205.92,101.80 L 206.69,101.06 L 208.03,99.80 L 208.66,99.21 L 209.67,98.29 L 210.13,97.87 L 210.77,97.33 L 211.26,97.00 L 211.37,97.00 L 211.86,97.19 L 212.15,97.31 L 212.92,97.70 L 215.82,99.39 L 217.18,100.24 L 220.34,101.59 L 221.98,102.19 L 225.45,102.98 L 227.19,103.30 L 230.64,103.49 L 235.45,103.01 L 237.06,102.65 L 239.71,101.84 L 240.96,101.41 L 243.15,100.31 L 244.23,99.70 L 246.32,98.09 L 249.75,94.90 L 251.06,93.58 L 253.20,90.68 L 254.19,89.20 L 255.71,86.03 L 256.39,84.43 L 257.28,81.09 L 257.65,79.40 L 257.91,75.98 L 257.96,74.26 L 257.59,70.84 L 257.33,69.14 L 256.32,65.82 L 255.74,64.18 L 254.10,61.04 L 250.91,56.64 L 249.48,55.01 L 246.52,52.46 L 245.01,51.31 L 241.77,49.65 L 240.09,48.92 L 236.36,48.06 L 230.00,47.57 L 227.77,47.58 L 223.88,48.03 L 222.01,48.33 L 218.66,49.42 L 217.03,50.05 L 214.01,51.88 L 209.63,55.53 L 208.24,56.89 L 206.11,59.61 L 205.14,60.99 L 203.76,63.91 L 203.16,65.42 L 202.44,68.79 L 202.02,74.59 L 202.02,76.08 L 202.13,78.45 L 202.21,79.57 L 202.58,81.53 L 202.81,82.50 L 203.53,84.48 L 205.13,87.95 L 208.27,94.22 L 191.80,110.69 L 175.33,127.16 L 171.56,124.61 L 170.53,123.91 L 167.83,122.63 L 167.16,122.34 L 165.86,121.88 L 164.15,121.45 L 163.15,121.28 L 161.20,120.91 L 160.76,120.82 L 160.02,120.65 L 159.25,120.45 L 159.13,120.42 L 158.92,120.08 L 158.82,119.86 L 158.65,119.13 L 158.57,118.70 L 158.44,117.51 L 158.37,116.86 L 158.27,115.16 L 158.22,114.25 L 158.14,111.99 L 158.11,110.79 L 158.06,107.93 L 158.04,106.41 L 158.02,102.88 L 158.00,96.78 L 158.00,73.50 L 163.86,71.78 L 165.36,71.34 L 168.13,70.16 L 169.47,69.52 L 171.91,68.00 L 173.09,67.19 L 175.19,65.36 L 176.21,64.41 L 177.98,62.32 L 178.82,61.24 L 180.25,58.94 L 180.93,57.77 L 182.01,55.30 L 182.51,54.05 L 183.24,51.46 L 183.57,50.16 L 183.95,47.50 L 184.09,46.17 L 184.11,43.49 L 184.07,42.15 L 183.72,39.49 L 183.50,38.16 L 182.78,35.57 L 182.38,34.28 L 181.28,31.80 L 180.69,30.58 L 179.21,28.26 L 178.42,27.13 L 176.56,25.02 L 175.58,23.99 L 173.33,22.13 L 169.50,19.68 L 168.82,19.31 L 167.06,18.71 L 166.12,18.43 L 163.97,18.00 L 161.74,17.62 L 156.69,17.38 L 154.16,17.35 L 149.38,17.82 L 148.25,17.99 L 146.25,18.45 L 143.76,19.36 L 142.55,19.96 L 139.96,21.80 L 138.66,22.80 L 136.13,25.18 L 134.91,26.40 L 132.79,29.00 L 130.42,32.76 L 130.13,33.34 L 129.65,34.73 L 129.41,35.45 L 129.02,37.06 L 128.66,38.72 L 128.27,42.41 L 128.13,44.27 L 128.21,47.92 L 128.92,52.70 L 129.36,54.34 L 131.02,57.65 L 131.97,59.28 L 134.47,62.41 L 135.81,63.92 L 138.94,66.61 L 144.10,69.89 L 145.81,70.75 L 149.04,72.09 L 149.77,72.37 L 150.97,72.75 L 152.18,73.00 L 152.40,73.00 L 152.76,73.09 L 152.93,73.17 L 153.21,73.53 L 153.33,73.76 L 153.52,74.56 L 153.61,75.02 L 153.73,76.39 L 153.78,77.17 L 153.84,79.29 L 153.87,80.45 L 153.88,83.47 L 153.88,84.28 L 153.87,86.11 L 153.86,87.06 L 153.85,89.17 L 153.84,90.26 L 153.81,92.67 L 153.77,96.64 L 153.50,120.28 L 148.95,121.43 L 147.70,121.75 L 144.71,122.89 L 143.98,123.19 L 142.62,123.82 L 140.90,124.75 L 137.40,126.92 L 120.50,110.00 L 119.50,109.00 L 117.67,107.17 L 116.79,106.28 L 115.18,104.66 L 114.40,103.88 L 113.01,102.46 L 112.34,101.78 L 111.14,100.55 L 109.99,99.36 L 108.22,97.48 L 107.42,96.61 L 106.28,95.26 L 105.78,94.65 L 105.17,93.72 L 104.92,93.30 L 104.73,92.66 L 104.68,92.37 L 104.81,91.90 L 105.27,91.26 L 105.93,90.52 L 107.07,88.73 L 107.61,87.79 L 108.50,85.66 L 108.90,84.56 L 109.51,82.17 L 109.79,80.96 L 110.12,78.42 L 110.25,77.14 L 110.29,74.54 L 110.28,73.23 L 110.02,70.66 L 109.86,69.38 L 109.30,66.92 L 108.10,63.48 L 107.53,62.20 L 106.25,59.87 L 105.58,58.74 L 104.09,56.72 L 103.32,55.75 L 101.62,54.03 L 100.74,53.21 L 98.82,51.79 L 97.84,51.11 L 95.70,49.99 L 94.60,49.46 L 92.23,48.63 L 91.01,48.25 L 88.41,47.71 L 84.24,47.21 L 81.99,47.06 L 78.05,47.27 L 76.14,47.46 L 72.71,48.40 L 71.04,48.97 L 67.89,50.72 L 63.22,54.36 L 61.86,55.62 L 59.66,58.14 L 58.64,59.41 L 57.07,62.07 L 56.36,63.44 L 55.36,66.38 L 54.40,71.26 L 54.16,73.30 L 54.33,77.26 L 54.53,79.22 L 55.56,82.97 L 56.19,84.82 L 58.06,88.33 L 61.81,93.25 L 62.99,94.53 L 65.47,96.71 L 66.72,97.74 L 69.32,99.42 L 70.63,100.20 L 73.33,101.39 L 74.70,101.92 L 77.49,102.61 L 78.89,102.89 L 81.75,103.07 L 83.19,103.10 L 86.10,102.77 L 87.56,102.54 L 90.51,101.70 L 94.95,99.87 L 101.22,96.73 L 117.76,113.26 L 134.29,129.80 L 131.94,133.60 L 131.62,134.12 L 130.94,135.43 L 130.60,136.12 L 129.94,137.62 L 128.43,141.95 L 127.28,146.50 L 103.83,146.77 L 80.39,147.04 L 79.11,142.07 L 78.81,140.89 L 77.98,138.59 L 77.52,137.45 L 76.42,135.27 L 75.83,134.20 L 74.48,132.18 L 73.78,131.19 L 72.22,129.37 L 71.42,128.48 L 69.69,126.88 L 68.80,126.12 L 66.92,124.79 L 65.97,124.16 L 63.99,123.14 L 60.92,121.98 L 60.45,121.84 L 59.08,121.60 L 58.35,121.48 L 56.60,121.29 L 51.01,121.01 L 49.83,121.01 L 47.55,121.21 L 46.42,121.35 L 44.25,121.80 L 42.11,122.32 L 38.19,124.03 L 36.30,124.99 L 32.97,127.49 L 31.38,128.83 L 28.72,132.00 L 27.49,133.66 L 25.61,137.36 L 24.77,139.27 L 23.77,143.38 L 23.38,145.48 L 23.34,149.86 L 23.39,150.97 L 23.70,153.22 L 24.47,156.61 L 24.82,157.81 L 25.56,159.79 L 25.95,160.73 L 26.95,162.44 L 27.50,163.29 L 28.96,165.05 L 31.88,168.09 L 33.37,169.55 L 36.53,171.93 L 38.13,173.04 L 41.45,174.70 L 43.12,175.44 L 46.54,176.38 L 48.25,176.75 L 51.70,176.97 L 53.43,176.98 L 56.86,176.47 L 58.56,176.12 L 61.90,174.88 L 63.55,174.17 L 66.75,172.21 L 71.30,168.44 L 72.30,167.45 L 74.35,164.71 L 75.35,163.26 L 77.15,160.08 L 77.99,158.50 L 79.20,155.52 L 79.46,154.81 L 79.79,153.55 L 80.00,151.96 L 80.00,151.89 L 80.43,151.75 L 80.71,151.69 L 81.67,151.56 L 82.22,151.50 L 83.70,151.40 L 84.50,151.35 L 86.45,151.26 L 87.49,151.22 L 89.90,151.15 L 91.15,151.12 L 93.98,151.07 L 95.44,151.05 L 98.66,151.02 L 103.89,151.00 L 127.78,151.00 L 128.48,154.75 L 128.57,155.27 L 128.96,156.58 L 129.18,157.27 L 129.75,158.79 L 131.84,163.24 L 134.50,167.98 L 118.12,184.38 L 101.75,200.77 L 98.39,198.49 L 97.09,197.60 L 94.23,196.25 L 92.77,195.65 L 89.67,194.84 L 88.10,194.51 L 84.87,194.23 L 83.24,194.16 L 79.97,194.41 L 78.35,194.60 L 75.14,195.35 L 73.56,195.79 L 70.53,197.05 L 69.05,197.74 L 66.29,199.47 L 62.58,202.61 L 61.23,204.00 L 59.23,206.47 L 58.33,207.70 L 57.07,210.18 L 56.52,211.46 L 55.83,214.39 L 55.68,215.17 L 55.46,216.89 L 55.21,219.76 L 55.06,222.04 L 55.27,226.04 L 55.47,227.96 L 56.45,231.42 L 57.05,233.12 L 58.88,236.32 L 62.70,241.11 L 64.08,242.59 L 67.12,245.01 L 68.68,246.13 L 72.01,247.85 L 73.70,248.62 L 77.20,249.62 L 78.96,250.04 L 82.54,250.33 L 84.33,250.39 L 87.89,249.96 L 89.65,249.66 L 93.07,248.52 L 94.76,247.86 L 97.94,246.00 L 102.35,242.39 L 103.67,241.05 L 105.81,238.34 L 106.80,236.97 L 108.32,234.12 L 109.00,232.67 L 109.94,229.57 L 110.74,224.53 L 110.88,222.77 L 110.80,219.48 L 110.70,217.87 L 110.14,214.85 L 109.80,213.38 L 108.75,210.62 L 106.61,206.76 L 104.23,203.25 L 120.86,186.67 L 137.50,170.10 L 141.50,172.57 L 142.60,173.25 L 145.58,174.64 L 146.33,174.96 L 147.80,175.52 L 149.77,176.15 L 154.04,177.25 L 153.77,200.76 L 153.50,224.28 L 148.80,225.47 L 147.63,225.77 L 145.42,226.56 L 144.33,226.99 L 142.28,228.03 L 141.28,228.58 L 139.42,229.84 L 138.52,230.50 L 136.85,231.96 L 135.22,233.47 L 132.59,236.97 L 131.39,238.78 L 129.64,242.76 L 128.88,244.80 L 128.08,249.06 L 127.81,251.21 L 128.03,255.58 L 128.16,256.67 L 128.61,258.83 L 128.87,259.90 L 129.60,262.02 L 130.01,263.07 L 131.03,265.13 L 132.90,268.11 L 133.99,269.62 L 136.41,272.26 L 137.65,273.50 L 140.33,275.59 L 141.70,276.57 L 144.59,278.10 L 146.06,278.79 L 149.12,279.76 L 150.66,280.16 L 153.85,280.54 L 155.45,280.66 L 158.71,280.45 L 160.34,280.26 L 163.63,279.45 L 165.28,278.96 Z" fill="rgb(254,254,254)"/>
</g>
</svg>